<?xml version="1.0" encoding="utf-8"?>
<!-- Generator: Adobe Illustrator 21.0.0, SVG Export Plug-In . SVG Version: 6.00 Build 0)  -->
<svg version="1.1" id="tap-music" xmlns="http://www.w3.org/2000/svg" xmlns:xlink="http://www.w3.org/1999/xlink" x="0px" y="0px"
	 width="300px" height="300px" viewBox="0 0 300 300" style="enable-background:new 0 0 300 300;" xml:space="preserve">
<style type="text/css">
	.st0{fill:url(#SVGID_1_);stroke:#000000;stroke-width:3;stroke-miterlimit:10;}
	.st1{fill:#37123C;stroke:#000000;stroke-width:3;stroke-miterlimit:10;}
	.st2{fill:#CFB9AB;stroke:#000000;stroke-width:3;stroke-miterlimit:10;}
	.st3{fill:none;}
</style>
<linearGradient id="SVGID_1_" gradientUnits="userSpaceOnUse" x1="91.3301" y1="103.77" x2="203" y2="103.77">
	<stop  offset="1.621622e-02" style="stop-color:#FFFFFF"/>
	<stop  offset="0.1218" style="stop-color:#EAEAEA"/>
	<stop  offset="0.3402" style="stop-color:#B4B4B4"/>
	<stop  offset="0.6512" style="stop-color:#5D5D5D"/>
	<stop  offset="0.9622" style="stop-color:#000000"/>
</linearGradient>
<path class="st0" d="M203,103.8c0,9.7-13.5,18.1-32.9,21.9c-7,1.4-14.7,2.1-22.9,2.1c-10.3,0-19.9-1.2-28.1-3.3
	c-16.6-4.2-27.7-11.9-27.7-20.7c0-13.3,25-24,55.8-24C178,79.8,203,90.5,203,103.8z"/>
<path class="st1" d="M170.1,194.3v21.9c19.4-3.8,32.9-12.1,32.9-21.9"/>
<path class="st1" d="M91.3,194.3c0,8.8,11.1,16.6,27.7,20.7v-20.7"/>
<path class="st1" d="M119,194.3v20.7c8.3,2.1,17.9,3.3,28.1,3.3c8.2,0,15.9-0.8,22.9-2.1v-21.9"/>
<path class="st1" d="M203,194.3v-90.6c0,9.7-13.5,18.1-32.9,21.9v68.7"/>
<path class="st1" d="M170.1,194.3v-68.7c-7,1.4-14.7,2.1-22.9,2.1c-10.3,0-19.9-1.2-28.1-3.3v69.8"/>
<path class="st1" d="M119,194.3v-69.8c-16.6-4.2-27.7-11.9-27.7-20.7v90.6"/>
<path class="st2" d="M136.5,97.7c1.6,4.6,6.6,7.2,11.3,5.6l4-1.3c2.7-0.9,4.6-3,5.5-5.4L254.7,64c3-1,4.6-4.3,3.6-7.3
	c-1-3-4.3-4.6-7.3-3.6l-97.9,32.7c-2.1-1.2-4.7-1.5-7.1-0.7l-4,1.3C137.4,88,134.9,93,136.5,97.7z"/>
<rect x="57.5" y="12.3" class="st3" width="184.6" height="33.8"/>
</svg>
